<svg xmlns="http://www.w3.org/2000/svg" version="1.1" xmlns:xlink="http://www.w3.org/1999/xlink" xmlns:svgjs="http://svgjs.dev/svgjs" width="1440" height="600" preserveAspectRatio="none" viewBox="0 0 1440 600"><g mask="url(&quot;#SvgjsMask1141&quot;)" fill="none"><rect width="1440" height="600" x="0" y="0" fill="#0e2a47"></rect><path d="M-52.36 510.24L-52.36 510.24" stroke="#132e65" stroke-width="1.5"></path><path d="M-52.36 510.24L44.26 372.28" stroke="#132e65" stroke-width="1.5"></path><path d="M-52.36 510.24L110.68 558.8" stroke="#132e65" stroke-width="1.5"></path><path d="M-39.67 690.76L-39.67 690.76" stroke="#132e65" stroke-width="1.5"></path><path d="M-39.67 690.76L107.01 687.06" stroke="#132e65" stroke-width="1.5"></path><path d="M-39.67 690.76L-52.36 510.24" stroke="#132e65" stroke-width="1.5"></path><path d="M-39.67 690.76L110.68 558.8" stroke="#132e65" stroke-width="1.5"></path><path d="M-39.67 690.76L212.44 665.83" stroke="#132e65" stroke-width="1.5"></path><path d="M-39.67 690.76L231.08 535.72" stroke="#132e65" stroke-width="1.5"></path><path d="M44.26 372.28L44.26 372.28" stroke="#132e65" stroke-width="1.5"></path><path d="M44.26 372.28L110.68 558.8" stroke="#132e65" stroke-width="1.5"></path><path d="M44.26 372.28L259.32 343.62" stroke="#132e65" stroke-width="1.5"></path><path d="M110.68 558.8L110.68 558.8" stroke="#132e65" stroke-width="1.5"></path><path d="M110.68 558.8L231.08 535.72" stroke="#132e65" stroke-width="1.5"></path><path d="M110.68 558.8L107.01 687.06" stroke="#132e65" stroke-width="1.5"></path><path d="M107.01 687.06L107.01 687.06" stroke="#132e65" stroke-width="1.5"></path><path d="M107.01 687.06L212.44 665.83" stroke="#132e65" stroke-width="1.5"></path><path d="M107.01 687.06L231.08 535.72" stroke="#132e65" stroke-width="1.5"></path><path d="M259.32 343.62L259.32 343.62" stroke="#132e65" stroke-width="1.5"></path><path d="M259.32 343.62L382.36 392.25" stroke="#132e65" stroke-width="1.5"></path><path d="M259.32 343.62L231.08 535.72" stroke="#132e65" stroke-width="1.5"></path><path d="M259.32 343.62L371.35 506.42" stroke="#132e65" stroke-width="1.5"></path><path d="M259.32 343.62L110.68 558.8" stroke="#132e65" stroke-width="1.5"></path><path d="M231.08 535.72L231.08 535.72" stroke="#132e65" stroke-width="1.5"></path><path d="M231.08 535.72L212.44 665.83" stroke="#132e65" stroke-width="1.5"></path><path d="M231.08 535.72L371.35 506.42" stroke="#132e65" stroke-width="1.5"></path><path d="M231.08 535.72L363.37 678.95" stroke="#132e65" stroke-width="1.5"></path><path d="M212.44 665.83L212.44 665.83" stroke="#132e65" stroke-width="1.5"></path><path d="M382.36 392.25L382.36 392.25" stroke="#132e65" stroke-width="1.5"></path><path d="M382.36 392.25L371.35 506.42" stroke="#132e65" stroke-width="1.5"></path><path d="M382.36 392.25L548.33 404.51" stroke="#132e65" stroke-width="1.5"></path><path d="M382.36 392.25L546.84 488" stroke="#132e65" stroke-width="1.5"></path><path d="M371.35 506.42L371.35 506.42" stroke="#132e65" stroke-width="1.5"></path><path d="M371.35 506.42L363.37 678.95" stroke="#132e65" stroke-width="1.5"></path><path d="M363.37 678.95L363.37 678.95" stroke="#132e65" stroke-width="1.5"></path><path d="M363.37 678.95L212.44 665.83" stroke="#132e65" stroke-width="1.5"></path><path d="M363.37 678.95L518.87 696.43" stroke="#132e65" stroke-width="1.5"></path><path d="M548.33 404.51L548.33 404.51" stroke="#132e65" stroke-width="1.5"></path><path d="M548.33 404.51L546.84 488" stroke="#132e65" stroke-width="1.5"></path><path d="M548.33 404.51L701.95 337.98" stroke="#132e65" stroke-width="1.5"></path><path d="M548.33 404.51L371.35 506.42" stroke="#132e65" stroke-width="1.5"></path><path d="M548.33 404.51L708.85 558.07" stroke="#132e65" stroke-width="1.5"></path><path d="M546.84 488L546.84 488" stroke="#132e65" stroke-width="1.5"></path><path d="M546.84 488L371.35 506.42" stroke="#132e65" stroke-width="1.5"></path><path d="M546.84 488L708.85 558.07" stroke="#132e65" stroke-width="1.5"></path><path d="M518.87 696.43L518.87 696.43" stroke="#132e65" stroke-width="1.5"></path><path d="M518.87 696.43L676.74 700.97" stroke="#132e65" stroke-width="1.5"></path><path d="M701.95 337.98L701.95 337.98" stroke="#132e65" stroke-width="1.5"></path><path d="M701.95 337.98L802.05 374.74" stroke="#132e65" stroke-width="1.5"></path><path d="M701.95 337.98L824.33 199.98" stroke="#132e65" stroke-width="1.5"></path><path d="M701.95 337.98L546.84 488" stroke="#132e65" stroke-width="1.5"></path><path d="M708.85 558.07L708.85 558.07" stroke="#132e65" stroke-width="1.5"></path><path d="M708.85 558.07L796.07 538.54" stroke="#132e65" stroke-width="1.5"></path><path d="M708.85 558.07L676.74 700.97" stroke="#132e65" stroke-width="1.5"></path><path d="M708.85 558.07L853.07 691.19" stroke="#132e65" stroke-width="1.5"></path><path d="M676.74 700.97L676.74 700.97" stroke="#132e65" stroke-width="1.5"></path><path d="M676.74 700.97L853.07 691.19" stroke="#132e65" stroke-width="1.5"></path><path d="M676.74 700.97L796.07 538.54" stroke="#132e65" stroke-width="1.5"></path><path d="M824.33 199.98L824.33 199.98" stroke="#132e65" stroke-width="1.5"></path><path d="M824.33 199.98L942.44 199.02" stroke="#132e65" stroke-width="1.5"></path><path d="M824.33 199.98L802.05 374.74" stroke="#132e65" stroke-width="1.5"></path><path d="M802.05 374.74L802.05 374.74" stroke="#132e65" stroke-width="1.5"></path><path d="M802.05 374.74L796.07 538.54" stroke="#132e65" stroke-width="1.5"></path><path d="M802.05 374.74L981.98 402.46" stroke="#132e65" stroke-width="1.5"></path><path d="M796.07 538.54L796.07 538.54" stroke="#132e65" stroke-width="1.5"></path><path d="M796.07 538.54L945.56 490.19" stroke="#132e65" stroke-width="1.5"></path><path d="M796.07 538.54L853.07 691.19" stroke="#132e65" stroke-width="1.5"></path><path d="M853.07 691.19L853.07 691.19" stroke="#132e65" stroke-width="1.5"></path><path d="M853.07 691.19L968.79 706.47" stroke="#132e65" stroke-width="1.5"></path><path d="M853.07 691.19L945.56 490.19" stroke="#132e65" stroke-width="1.5"></path><path d="M853.07 691.19L1116.29 644.24" stroke="#132e65" stroke-width="1.5"></path><path d="M959.05 -44.71L959.05 -44.71" stroke="#132e65" stroke-width="1.5"></path><path d="M959.05 -44.71L1097.85 -74.01" stroke="#132e65" stroke-width="1.5"></path><path d="M959.05 -44.71L1092.64 41.71" stroke="#132e65" stroke-width="1.5"></path><path d="M959.05 -44.71L1003.47 108.4" stroke="#132e65" stroke-width="1.5"></path><path d="M959.05 -44.71L942.44 199.02" stroke="#132e65" stroke-width="1.5"></path><path d="M959.05 -44.71L824.33 199.98" stroke="#132e65" stroke-width="1.5"></path><path d="M1003.47 108.4L1003.47 108.4" stroke="#132e65" stroke-width="1.5"></path><path d="M1003.47 108.4L942.44 199.02" stroke="#132e65" stroke-width="1.5"></path><path d="M1003.47 108.4L1092.64 41.71" stroke="#132e65" stroke-width="1.5"></path><path d="M1003.47 108.4L1088.13 230.6" stroke="#132e65" stroke-width="1.5"></path><path d="M1003.47 108.4L824.33 199.98" stroke="#132e65" stroke-width="1.5"></path><path d="M1003.47 108.4L1097.85 -74.01" stroke="#132e65" stroke-width="1.5"></path><path d="M942.44 199.02L942.44 199.02" stroke="#132e65" stroke-width="1.5"></path><path d="M942.44 199.02L1088.13 230.6" stroke="#132e65" stroke-width="1.5"></path><path d="M942.44 199.02L981.98 402.46" stroke="#132e65" stroke-width="1.5"></path><path d="M981.98 402.46L981.98 402.46" stroke="#132e65" stroke-width="1.5"></path><path d="M981.98 402.46L945.56 490.19" stroke="#132e65" stroke-width="1.5"></path><path d="M981.98 402.46L1132.64 392.25" stroke="#132e65" stroke-width="1.5"></path><path d="M981.98 402.46L1097.16 553.51" stroke="#132e65" stroke-width="1.5"></path><path d="M945.56 490.19L945.56 490.19" stroke="#132e65" stroke-width="1.5"></path><path d="M945.56 490.19L1097.16 553.51" stroke="#132e65" stroke-width="1.5"></path><path d="M945.56 490.19L802.05 374.74" stroke="#132e65" stroke-width="1.5"></path><path d="M945.56 490.19L1132.64 392.25" stroke="#132e65" stroke-width="1.5"></path><path d="M945.56 490.19L968.79 706.47" stroke="#132e65" stroke-width="1.5"></path><path d="M968.79 706.47L968.79 706.47" stroke="#132e65" stroke-width="1.5"></path><path d="M968.79 706.47L1116.29 644.24" stroke="#132e65" stroke-width="1.5"></path><path d="M1097.85 -74.01L1097.85 -74.01" stroke="#132e65" stroke-width="1.5"></path><path d="M1097.85 -74.01L1092.64 41.71" stroke="#132e65" stroke-width="1.5"></path><path d="M1097.85 -74.01L1308 -57.75" stroke="#132e65" stroke-width="1.5"></path><path d="M1097.85 -74.01L1254.16 80.65" stroke="#132e65" stroke-width="1.5"></path><path d="M1097.85 -74.01L1088.13 230.6" stroke="#132e65" stroke-width="1.5"></path><path d="M1092.64 41.71L1092.64 41.71" stroke="#132e65" stroke-width="1.5"></path><path d="M1088.13 230.6L1088.13 230.6" stroke="#132e65" stroke-width="1.5"></path><path d="M1088.13 230.6L1132.64 392.25" stroke="#132e65" stroke-width="1.5"></path><path d="M1088.13 230.6L1258.84 222.58" stroke="#132e65" stroke-width="1.5"></path><path d="M1088.13 230.6L1092.64 41.71" stroke="#132e65" stroke-width="1.5"></path><path d="M1088.13 230.6L981.98 402.46" stroke="#132e65" stroke-width="1.5"></path><path d="M1132.64 392.25L1132.64 392.25" stroke="#132e65" stroke-width="1.5"></path><path d="M1132.64 392.25L1271.59 351.4" stroke="#132e65" stroke-width="1.5"></path><path d="M1097.16 553.51L1097.16 553.51" stroke="#132e65" stroke-width="1.5"></path><path d="M1097.16 553.51L1116.29 644.24" stroke="#132e65" stroke-width="1.5"></path><path d="M1097.16 553.51L1132.64 392.25" stroke="#132e65" stroke-width="1.5"></path><path d="M1116.29 644.24L1116.29 644.24" stroke="#132e65" stroke-width="1.5"></path><path d="M1116.29 644.24L1271.82 668.39" stroke="#132e65" stroke-width="1.5"></path><path d="M1116.29 644.24L1271.59 537.98" stroke="#132e65" stroke-width="1.5"></path><path d="M1116.29 644.24L945.56 490.19" stroke="#132e65" stroke-width="1.5"></path><path d="M1116.29 644.24L1132.64 392.25" stroke="#132e65" stroke-width="1.5"></path><path d="M1308 -57.75L1308 -57.75" stroke="#132e65" stroke-width="1.5"></path><path d="M1308 -57.75L1451.35 -88.18" stroke="#132e65" stroke-width="1.5"></path><path d="M1308 -57.75L1254.16 80.65" stroke="#132e65" stroke-width="1.5"></path><path d="M1254.16 80.65L1254.16 80.65" stroke="#132e65" stroke-width="1.5"></path><path d="M1254.16 80.65L1258.84 222.58" stroke="#132e65" stroke-width="1.5"></path><path d="M1254.16 80.65L1092.64 41.71" stroke="#132e65" stroke-width="1.5"></path><path d="M1254.16 80.65L1439.7 111.75" stroke="#132e65" stroke-width="1.5"></path><path d="M1258.84 222.58L1258.84 222.58" stroke="#132e65" stroke-width="1.5"></path><path d="M1258.84 222.58L1271.59 351.4" stroke="#132e65" stroke-width="1.5"></path><path d="M1271.59 351.4L1271.59 351.4" stroke="#132e65" stroke-width="1.5"></path><path d="M1271.59 351.4L1416.97 345.76" stroke="#132e65" stroke-width="1.5"></path><path d="M1271.59 351.4L1412.16 230.91" stroke="#132e65" stroke-width="1.5"></path><path d="M1271.59 351.4L1271.59 537.98" stroke="#132e65" stroke-width="1.5"></path><path d="M1271.59 537.98L1271.59 537.98" stroke="#132e65" stroke-width="1.5"></path><path d="M1271.59 537.98L1400.83 553.17" stroke="#132e65" stroke-width="1.5"></path><path d="M1271.59 537.98L1271.82 668.39" stroke="#132e65" stroke-width="1.5"></path><path d="M1271.59 537.98L1097.16 553.51" stroke="#132e65" stroke-width="1.5"></path><path d="M1271.59 537.98L1132.64 392.25" stroke="#132e65" stroke-width="1.5"></path><path d="M1271.82 668.39L1271.82 668.39" stroke="#132e65" stroke-width="1.5"></path><path d="M1271.82 668.39L1427.73 690.41" stroke="#132e65" stroke-width="1.5"></path><path d="M1271.82 668.39L1400.83 553.17" stroke="#132e65" stroke-width="1.5"></path><path d="M1271.82 668.39L1097.16 553.51" stroke="#132e65" stroke-width="1.5"></path><path d="M1271.82 668.39L968.79 706.47" stroke="#132e65" stroke-width="1.5"></path><path d="M1451.35 -88.18L1451.35 -88.18" stroke="#132e65" stroke-width="1.5"></path><path d="M1451.35 -88.18L1598.86 -73.69" stroke="#132e65" stroke-width="1.5"></path><path d="M1439.7 111.75L1439.7 111.75" stroke="#132e65" stroke-width="1.5"></path><path d="M1439.7 111.75L1412.16 230.91" stroke="#132e65" stroke-width="1.5"></path><path d="M1439.7 111.75L1539.88 197.76" stroke="#132e65" stroke-width="1.5"></path><path d="M1439.7 111.75L1564.65 61.54" stroke="#132e65" stroke-width="1.5"></path><path d="M1412.16 230.91L1412.16 230.91" stroke="#132e65" stroke-width="1.5"></path><path d="M1412.16 230.91L1416.97 345.76" stroke="#132e65" stroke-width="1.5"></path><path d="M1416.97 345.76L1416.97 345.76" stroke="#132e65" stroke-width="1.5"></path><path d="M1400.83 553.17L1400.83 553.17" stroke="#132e65" stroke-width="1.5"></path><path d="M1400.83 553.17L1427.73 690.41" stroke="#132e65" stroke-width="1.5"></path><path d="M1400.83 553.17L1549.77 509.71" stroke="#132e65" stroke-width="1.5"></path><path d="M1427.73 690.41L1427.73 690.41" stroke="#132e65" stroke-width="1.5"></path><path d="M1427.73 690.41L1594.38 640.94" stroke="#132e65" stroke-width="1.5"></path><path d="M1427.73 690.41L1549.77 509.71" stroke="#132e65" stroke-width="1.5"></path><path d="M1427.73 690.41L1271.59 537.98" stroke="#132e65" stroke-width="1.5"></path><path d="M1427.73 690.41L1116.29 644.24" stroke="#132e65" stroke-width="1.5"></path><path d="M1598.86 -73.69L1598.86 -73.69" stroke="#132e65" stroke-width="1.5"></path><path d="M1598.86 -73.69L1564.65 61.54" stroke="#132e65" stroke-width="1.5"></path><path d="M1598.86 -73.69L1439.7 111.75" stroke="#132e65" stroke-width="1.5"></path><path d="M1598.86 -73.69L1539.88 197.76" stroke="#132e65" stroke-width="1.5"></path><path d="M1564.65 61.54L1564.65 61.54" stroke="#132e65" stroke-width="1.5"></path><path d="M1564.65 61.54L1539.88 197.76" stroke="#132e65" stroke-width="1.5"></path><path d="M1564.65 61.54L1451.35 -88.18" stroke="#132e65" stroke-width="1.5"></path><path d="M1564.65 61.54L1412.16 230.91" stroke="#132e65" stroke-width="1.5"></path><path d="M1539.88 197.76L1539.88 197.76" stroke="#132e65" stroke-width="1.5"></path><path d="M1539.88 197.76L1412.16 230.91" stroke="#132e65" stroke-width="1.5"></path><path d="M1539.88 197.76L1592.45 374.64" stroke="#132e65" stroke-width="1.5"></path><path d="M1539.88 197.76L1416.97 345.76" stroke="#132e65" stroke-width="1.5"></path><path d="M1592.45 374.64L1592.45 374.64" stroke="#132e65" stroke-width="1.5"></path><path d="M1592.45 374.64L1549.77 509.71" stroke="#132e65" stroke-width="1.5"></path><path d="M1592.45 374.64L1416.97 345.76" stroke="#132e65" stroke-width="1.5"></path><path d="M1549.77 509.71L1549.77 509.71" stroke="#132e65" stroke-width="1.5"></path><path d="M1549.77 509.71L1594.38 640.94" stroke="#132e65" stroke-width="1.5"></path><path d="M1549.77 509.71L1416.97 345.76" stroke="#132e65" stroke-width="1.5"></path><path d="M1594.38 640.94L1594.38 640.94" stroke="#132e65" stroke-width="1.5"></path><path d="M1594.38 640.94L1400.83 553.17" stroke="#132e65" stroke-width="1.5"></path><path d="M1594.38 640.94L1592.45 374.64" stroke="#132e65" stroke-width="1.5"></path><circle r="5" cx="-52.36" cy="510.24" fill="#132e65"></circle><circle r="5" cx="-39.67" cy="690.76" fill="#132e65"></circle><circle r="5" cx="44.26" cy="372.28" fill="#132e65"></circle><circle r="5" cx="110.68" cy="558.8" fill="#132e65"></circle><circle r="5" cx="107.01" cy="687.06" fill="#132e65"></circle><circle r="5" cx="259.32" cy="343.62" fill="#132e65"></circle><circle r="5" cx="231.08" cy="535.72" fill="#132e65"></circle><circle r="5" cx="212.44" cy="665.83" fill="#132e65"></circle><circle r="5" cx="382.36" cy="392.25" fill="#132e65"></circle><circle r="5" cx="371.35" cy="506.42" fill="#132e65"></circle><circle r="5" cx="363.37" cy="678.95" fill="#132e65"></circle><circle r="5" cx="548.33" cy="404.51" fill="#132e65"></circle><circle r="5" cx="546.84" cy="488" fill="#132e65"></circle><circle r="5" cx="518.87" cy="696.43" fill="#132e65"></circle><circle r="5" cx="701.95" cy="337.98" fill="#132e65"></circle><circle r="5" cx="708.85" cy="558.07" fill="#132e65"></circle><circle r="5" cx="676.74" cy="700.97" fill="#132e65"></circle><circle r="5" cx="824.33" cy="199.98" fill="#132e65"></circle><circle r="5" cx="802.05" cy="374.74" fill="#132e65"></circle><circle r="5" cx="796.07" cy="538.54" fill="#132e65"></circle><circle r="5" cx="853.07" cy="691.19" fill="#132e65"></circle><circle r="5" cx="959.05" cy="-44.71" fill="#132e65"></circle><circle r="5" cx="1003.47" cy="108.4" fill="#132e65"></circle><circle r="5" cx="942.44" cy="199.02" fill="#132e65"></circle><circle r="5" cx="981.98" cy="402.46" fill="#132e65"></circle><circle r="5" cx="945.56" cy="490.19" fill="#132e65"></circle><circle r="5" cx="968.79" cy="706.47" fill="#132e65"></circle><circle r="5" cx="1097.85" cy="-74.01" fill="#132e65"></circle><circle r="5" cx="1092.64" cy="41.71" fill="#132e65"></circle><circle r="5" cx="1088.13" cy="230.6" fill="#132e65"></circle><circle r="5" cx="1132.64" cy="392.25" fill="#132e65"></circle><circle r="5" cx="1097.16" cy="553.51" fill="#132e65"></circle><circle r="5" cx="1116.29" cy="644.24" fill="#132e65"></circle><circle r="5" cx="1308" cy="-57.75" fill="#132e65"></circle><circle r="5" cx="1254.16" cy="80.65" fill="#132e65"></circle><circle r="5" cx="1258.84" cy="222.58" fill="#132e65"></circle><circle r="5" cx="1271.59" cy="351.4" fill="#132e65"></circle><circle r="5" cx="1271.59" cy="537.98" fill="#132e65"></circle><circle r="5" cx="1271.82" cy="668.39" fill="#132e65"></circle><circle r="5" cx="1451.35" cy="-88.18" fill="#132e65"></circle><circle r="5" cx="1439.7" cy="111.75" fill="#132e65"></circle><circle r="5" cx="1412.16" cy="230.91" fill="#132e65"></circle><circle r="5" cx="1416.97" cy="345.76" fill="#132e65"></circle><circle r="5" cx="1400.83" cy="553.17" fill="#132e65"></circle><circle r="5" cx="1427.73" cy="690.41" fill="#132e65"></circle><circle r="5" cx="1598.86" cy="-73.69" fill="#132e65"></circle><circle r="5" cx="1564.65" cy="61.54" fill="#132e65"></circle><circle r="5" cx="1539.88" cy="197.76" fill="#132e65"></circle><circle r="5" cx="1592.45" cy="374.64" fill="#132e65"></circle><circle r="5" cx="1549.77" cy="509.71" fill="#132e65"></circle><circle r="5" cx="1594.38" cy="640.94" fill="#132e65"></circle><path d="M640.72 650.68L640.72 650.68" stroke="hsl(228.5, 77.2%, 51.5%)" stroke-width="1.5"></path><path d="M640.72 650.68L518.95 641.39" stroke="hsl(228.5, 77.2%, 51.5%)" stroke-width="1.5"></path><path d="M640.72 650.68L695.7 509.42" stroke="hsl(228.5, 77.2%, 51.5%)" stroke-width="1.5"></path><path d="M1573.97 259.14L1573.97 259.14" stroke="hsl(228.5, 77.2%, 51.5%)" stroke-width="1.5"></path><path d="M1573.97 259.14L1594.05 357.03" stroke="hsl(228.5, 77.2%, 51.5%)" stroke-width="1.5"></path><path d="M1573.97 259.14L1456.73 229.6" stroke="hsl(228.5, 77.2%, 51.5%)" stroke-width="1.5"></path><path d="M1573.97 259.14L1443.3 404.83" stroke="hsl(228.5, 77.2%, 51.5%)" stroke-width="1.5"></path><path d="M1573.97 259.14L1540.49 511.61" stroke="hsl(228.5, 77.2%, 51.5%)" stroke-width="1.5"></path><path d="M-75.33 541.63L-75.33 541.63" stroke="hsl(228.5, 77.2%, 51.5%)" stroke-width="1.5"></path><path d="M-75.33 541.63L-83.73 640.44" stroke="hsl(228.5, 77.2%, 51.5%)" stroke-width="1.5"></path><path d="M-75.33 541.63L75.1 541.67" stroke="hsl(228.5, 77.2%, 51.5%)" stroke-width="1.5"></path><path d="M-83.73 640.44L-83.73 640.44" stroke="hsl(228.5, 77.2%, 51.5%)" stroke-width="1.5"></path><path d="M-83.73 640.44L44.94 639.23" stroke="hsl(228.5, 77.2%, 51.5%)" stroke-width="1.5"></path><path d="M-83.73 640.44L75.1 541.67" stroke="hsl(228.5, 77.2%, 51.5%)" stroke-width="1.5"></path><path d="M-83.73 640.44L230.71 538" stroke="hsl(228.5, 77.2%, 51.5%)" stroke-width="1.5"></path><path d="M75.1 541.67L75.1 541.67" stroke="hsl(228.5, 77.2%, 51.5%)" stroke-width="1.5"></path><path d="M75.1 541.67L44.94 639.23" stroke="hsl(228.5, 77.2%, 51.5%)" stroke-width="1.5"></path><path d="M44.94 639.23L44.94 639.23" stroke="hsl(228.5, 77.2%, 51.5%)" stroke-width="1.5"></path><path d="M44.94 639.23L-75.33 541.63" stroke="hsl(228.5, 77.2%, 51.5%)" stroke-width="1.5"></path><path d="M230.71 538L230.71 538" stroke="hsl(228.5, 77.2%, 51.5%)" stroke-width="1.5"></path><path d="M230.71 538L348.77 512.19" stroke="hsl(228.5, 77.2%, 51.5%)" stroke-width="1.5"></path><path d="M230.71 538L75.1 541.67" stroke="hsl(228.5, 77.2%, 51.5%)" stroke-width="1.5"></path><path d="M230.71 538L241.68 706.37" stroke="hsl(228.5, 77.2%, 51.5%)" stroke-width="1.5"></path><path d="M241.68 706.37L241.68 706.37" stroke="hsl(228.5, 77.2%, 51.5%)" stroke-width="1.5"></path><path d="M348.77 512.19L348.77 512.19" stroke="hsl(228.5, 77.2%, 51.5%)" stroke-width="1.5"></path><path d="M348.77 512.19L533.54 498.74" stroke="hsl(228.5, 77.2%, 51.5%)" stroke-width="1.5"></path><path d="M348.77 512.19L518.95 641.39" stroke="hsl(228.5, 77.2%, 51.5%)" stroke-width="1.5"></path><path d="M348.77 512.19L241.68 706.37" stroke="hsl(228.5, 77.2%, 51.5%)" stroke-width="1.5"></path><path d="M533.54 498.74L533.54 498.74" stroke="hsl(228.5, 77.2%, 51.5%)" stroke-width="1.5"></path><path d="M533.54 498.74L518.95 641.39" stroke="hsl(228.5, 77.2%, 51.5%)" stroke-width="1.5"></path><path d="M533.54 498.74L695.7 509.42" stroke="hsl(228.5, 77.2%, 51.5%)" stroke-width="1.5"></path><path d="M533.54 498.74L640.72 650.68" stroke="hsl(228.5, 77.2%, 51.5%)" stroke-width="1.5"></path><path d="M518.95 641.39L518.95 641.39" stroke="hsl(228.5, 77.2%, 51.5%)" stroke-width="1.5"></path><path d="M518.95 641.39L695.7 509.42" stroke="hsl(228.5, 77.2%, 51.5%)" stroke-width="1.5"></path><path d="M695.7 509.42L695.7 509.42" stroke="hsl(228.5, 77.2%, 51.5%)" stroke-width="1.5"></path><path d="M695.7 509.42L810.64 561.53" stroke="hsl(228.5, 77.2%, 51.5%)" stroke-width="1.5"></path><path d="M695.7 509.42L818.52 688.04" stroke="hsl(228.5, 77.2%, 51.5%)" stroke-width="1.5"></path><path d="M855.27 337.96L855.27 337.96" stroke="hsl(228.5, 77.2%, 51.5%)" stroke-width="1.5"></path><path d="M855.27 337.96L983.45 386.48" stroke="hsl(228.5, 77.2%, 51.5%)" stroke-width="1.5"></path><path d="M855.27 337.96L996.88 261.58" stroke="hsl(228.5, 77.2%, 51.5%)" stroke-width="1.5"></path><path d="M855.27 337.96L976.86 518.02" stroke="hsl(228.5, 77.2%, 51.5%)" stroke-width="1.5"></path><path d="M855.27 337.96L810.64 561.53" stroke="hsl(228.5, 77.2%, 51.5%)" stroke-width="1.5"></path><path d="M855.27 337.96L695.7 509.42" stroke="hsl(228.5, 77.2%, 51.5%)" stroke-width="1.5"></path><path d="M810.64 561.53L810.64 561.53" stroke="hsl(228.5, 77.2%, 51.5%)" stroke-width="1.5"></path><path d="M810.64 561.53L818.52 688.04" stroke="hsl(228.5, 77.2%, 51.5%)" stroke-width="1.5"></path><path d="M810.64 561.53L976.86 518.02" stroke="hsl(228.5, 77.2%, 51.5%)" stroke-width="1.5"></path><path d="M818.52 688.04L818.52 688.04" stroke="hsl(228.5, 77.2%, 51.5%)" stroke-width="1.5"></path><path d="M996.88 261.58L996.88 261.58" stroke="hsl(228.5, 77.2%, 51.5%)" stroke-width="1.5"></path><path d="M996.88 261.58L1093.78 229.34" stroke="hsl(228.5, 77.2%, 51.5%)" stroke-width="1.5"></path><path d="M996.88 261.58L983.45 386.48" stroke="hsl(228.5, 77.2%, 51.5%)" stroke-width="1.5"></path><path d="M996.88 261.58L1129.19 392.49" stroke="hsl(228.5, 77.2%, 51.5%)" stroke-width="1.5"></path><path d="M983.45 386.48L983.45 386.48" stroke="hsl(228.5, 77.2%, 51.5%)" stroke-width="1.5"></path><path d="M983.45 386.48L976.86 518.02" stroke="hsl(228.5, 77.2%, 51.5%)" stroke-width="1.5"></path><path d="M983.45 386.48L1129.19 392.49" stroke="hsl(228.5, 77.2%, 51.5%)" stroke-width="1.5"></path><path d="M983.45 386.48L1093.78 229.34" stroke="hsl(228.5, 77.2%, 51.5%)" stroke-width="1.5"></path><path d="M983.45 386.48L1148.05 538.68" stroke="hsl(228.5, 77.2%, 51.5%)" stroke-width="1.5"></path><path d="M976.86 518.02L976.86 518.02" stroke="hsl(228.5, 77.2%, 51.5%)" stroke-width="1.5"></path><path d="M976.86 518.02L957.69 657.13" stroke="hsl(228.5, 77.2%, 51.5%)" stroke-width="1.5"></path><path d="M976.86 518.02L1148.05 538.68" stroke="hsl(228.5, 77.2%, 51.5%)" stroke-width="1.5"></path><path d="M976.86 518.02L1129.09 638.74" stroke="hsl(228.5, 77.2%, 51.5%)" stroke-width="1.5"></path><path d="M957.69 657.13L957.69 657.13" stroke="hsl(228.5, 77.2%, 51.5%)" stroke-width="1.5"></path><path d="M957.69 657.13L818.52 688.04" stroke="hsl(228.5, 77.2%, 51.5%)" stroke-width="1.5"></path><path d="M957.69 657.13L1129.09 638.74" stroke="hsl(228.5, 77.2%, 51.5%)" stroke-width="1.5"></path><path d="M957.69 657.13L810.64 561.53" stroke="hsl(228.5, 77.2%, 51.5%)" stroke-width="1.5"></path><path d="M1158.65 -47.35L1158.65 -47.35" stroke="hsl(228.5, 77.2%, 51.5%)" stroke-width="1.5"></path><path d="M1158.65 -47.35L1311.03 -98.37" stroke="hsl(228.5, 77.2%, 51.5%)" stroke-width="1.5"></path><path d="M1158.65 -47.35L1274.19 98.05" stroke="hsl(228.5, 77.2%, 51.5%)" stroke-width="1.5"></path><path d="M1158.65 -47.35L1441.29 -71.39" stroke="hsl(228.5, 77.2%, 51.5%)" stroke-width="1.5"></path><path d="M1158.65 -47.35L1093.78 229.34" stroke="hsl(228.5, 77.2%, 51.5%)" stroke-width="1.5"></path><path d="M1158.65 -47.35L1299.83 249.26" stroke="hsl(228.5, 77.2%, 51.5%)" stroke-width="1.5"></path><path d="M1093.78 229.34L1093.78 229.34" stroke="hsl(228.5, 77.2%, 51.5%)" stroke-width="1.5"></path><path d="M1093.78 229.34L1129.19 392.49" stroke="hsl(228.5, 77.2%, 51.5%)" stroke-width="1.5"></path><path d="M1093.78 229.34L1255.88 339.45" stroke="hsl(228.5, 77.2%, 51.5%)" stroke-width="1.5"></path><path d="M1093.78 229.34L1299.83 249.26" stroke="hsl(228.5, 77.2%, 51.5%)" stroke-width="1.5"></path><path d="M1093.78 229.34L1274.19 98.05" stroke="hsl(228.5, 77.2%, 51.5%)" stroke-width="1.5"></path><path d="M1129.19 392.49L1129.19 392.49" stroke="hsl(228.5, 77.2%, 51.5%)" stroke-width="1.5"></path><path d="M1129.19 392.49L1255.88 339.45" stroke="hsl(228.5, 77.2%, 51.5%)" stroke-width="1.5"></path><path d="M1129.19 392.49L1148.05 538.68" stroke="hsl(228.5, 77.2%, 51.5%)" stroke-width="1.5"></path><path d="M1129.19 392.49L1281.36 499.09" stroke="hsl(228.5, 77.2%, 51.5%)" stroke-width="1.5"></path><path d="M1148.05 538.68L1148.05 538.68" stroke="hsl(228.5, 77.2%, 51.5%)" stroke-width="1.5"></path><path d="M1148.05 538.68L1129.09 638.74" stroke="hsl(228.5, 77.2%, 51.5%)" stroke-width="1.5"></path><path d="M1148.05 538.68L1281.36 499.09" stroke="hsl(228.5, 77.2%, 51.5%)" stroke-width="1.5"></path><path d="M1129.09 638.74L1129.09 638.74" stroke="hsl(228.5, 77.2%, 51.5%)" stroke-width="1.5"></path><path d="M1129.09 638.74L1297.85 668.19" stroke="hsl(228.5, 77.2%, 51.5%)" stroke-width="1.5"></path><path d="M1311.03 -98.37L1311.03 -98.37" stroke="hsl(228.5, 77.2%, 51.5%)" stroke-width="1.5"></path><path d="M1311.03 -98.37L1441.29 -71.39" stroke="hsl(228.5, 77.2%, 51.5%)" stroke-width="1.5"></path><path d="M1274.19 98.05L1274.19 98.05" stroke="hsl(228.5, 77.2%, 51.5%)" stroke-width="1.5"></path><path d="M1274.19 98.05L1299.83 249.26" stroke="hsl(228.5, 77.2%, 51.5%)" stroke-width="1.5"></path><path d="M1274.19 98.05L1311.03 -98.37" stroke="hsl(228.5, 77.2%, 51.5%)" stroke-width="1.5"></path><path d="M1274.19 98.05L1456.73 229.6" stroke="hsl(228.5, 77.2%, 51.5%)" stroke-width="1.5"></path><path d="M1274.19 98.05L1441.29 -71.39" stroke="hsl(228.5, 77.2%, 51.5%)" stroke-width="1.5"></path><path d="M1299.83 249.26L1299.83 249.26" stroke="hsl(228.5, 77.2%, 51.5%)" stroke-width="1.5"></path><path d="M1299.83 249.26L1255.88 339.45" stroke="hsl(228.5, 77.2%, 51.5%)" stroke-width="1.5"></path><path d="M1299.83 249.26L1456.73 229.6" stroke="hsl(228.5, 77.2%, 51.5%)" stroke-width="1.5"></path><path d="M1255.88 339.45L1255.88 339.45" stroke="hsl(228.5, 77.2%, 51.5%)" stroke-width="1.5"></path><path d="M1255.88 339.45L1281.36 499.09" stroke="hsl(228.5, 77.2%, 51.5%)" stroke-width="1.5"></path><path d="M1255.88 339.45L1443.3 404.83" stroke="hsl(228.5, 77.2%, 51.5%)" stroke-width="1.5"></path><path d="M1281.36 499.09L1281.36 499.09" stroke="hsl(228.5, 77.2%, 51.5%)" stroke-width="1.5"></path><path d="M1297.85 668.19L1297.85 668.19" stroke="hsl(228.5, 77.2%, 51.5%)" stroke-width="1.5"></path><path d="M1297.85 668.19L1281.36 499.09" stroke="hsl(228.5, 77.2%, 51.5%)" stroke-width="1.5"></path><path d="M1441.29 -71.39L1441.29 -71.39" stroke="hsl(228.5, 77.2%, 51.5%)" stroke-width="1.5"></path><path d="M1441.29 -71.39L1604.94 -103.03" stroke="hsl(228.5, 77.2%, 51.5%)" stroke-width="1.5"></path><path d="M1456.73 229.6L1456.73 229.6" stroke="hsl(228.5, 77.2%, 51.5%)" stroke-width="1.5"></path><path d="M1443.3 404.83L1443.3 404.83" stroke="hsl(228.5, 77.2%, 51.5%)" stroke-width="1.5"></path><path d="M1443.3 404.83L1540.49 511.61" stroke="hsl(228.5, 77.2%, 51.5%)" stroke-width="1.5"></path><path d="M1443.3 404.83L1451.87 549.67" stroke="hsl(228.5, 77.2%, 51.5%)" stroke-width="1.5"></path><path d="M1443.3 404.83L1594.05 357.03" stroke="hsl(228.5, 77.2%, 51.5%)" stroke-width="1.5"></path><path d="M1443.3 404.83L1456.73 229.6" stroke="hsl(228.5, 77.2%, 51.5%)" stroke-width="1.5"></path><path d="M1451.87 549.67L1451.87 549.67" stroke="hsl(228.5, 77.2%, 51.5%)" stroke-width="1.5"></path><path d="M1451.87 549.67L1540.49 511.61" stroke="hsl(228.5, 77.2%, 51.5%)" stroke-width="1.5"></path><path d="M1451.87 549.67L1281.36 499.09" stroke="hsl(228.5, 77.2%, 51.5%)" stroke-width="1.5"></path><path d="M1604.94 -103.03L1604.94 -103.03" stroke="hsl(228.5, 77.2%, 51.5%)" stroke-width="1.5"></path><path d="M1604.94 -103.03L1311.03 -98.37" stroke="hsl(228.5, 77.2%, 51.5%)" stroke-width="1.5"></path><path d="M1604.94 -103.03L1573.97 259.14" stroke="hsl(228.5, 77.2%, 51.5%)" stroke-width="1.5"></path><path d="M1594.05 357.03L1594.05 357.03" stroke="hsl(228.5, 77.2%, 51.5%)" stroke-width="1.5"></path><path d="M1540.49 511.61L1540.49 511.61" stroke="hsl(228.5, 77.2%, 51.5%)" stroke-width="1.5"></path><path d="M1540.49 511.61L1594.05 357.03" stroke="hsl(228.5, 77.2%, 51.5%)" stroke-width="1.5"></path><path d="M1540.49 511.61L1606.85 703.07" stroke="hsl(228.5, 77.2%, 51.5%)" stroke-width="1.5"></path><path d="M1606.85 703.07L1606.85 703.07" stroke="hsl(228.5, 77.2%, 51.5%)" stroke-width="1.5"></path><path d="M1606.85 703.07L1451.87 549.67" stroke="hsl(228.5, 77.2%, 51.5%)" stroke-width="1.5"></path><path d="M1606.85 703.07L1297.85 668.19" stroke="hsl(228.5, 77.2%, 51.5%)" stroke-width="1.5"></path><path d="M1606.85 703.07L1443.3 404.83" stroke="hsl(228.5, 77.2%, 51.5%)" stroke-width="1.5"></path><path d="M1606.85 703.07L1594.05 357.03" stroke="hsl(228.5, 77.2%, 51.5%)" stroke-width="1.5"></path><path d="M1606.85 703.07L1281.36 499.09" stroke="hsl(228.5, 77.2%, 51.5%)" stroke-width="1.5"></path><circle r="25" cx="640.72" cy="650.68" fill="url(&quot;#SvgjsRadialGradient1142&quot;)"></circle><circle r="25" cx="1573.97" cy="259.14" fill="url(&quot;#SvgjsRadialGradient1142&quot;)"></circle><circle r="5" cx="-75.33" cy="541.63" fill="#8b9ad9"></circle><circle r="5" cx="-83.73" cy="640.44" fill="#8b9ad9"></circle><circle r="5" cx="75.1" cy="541.67" fill="#8b9ad9"></circle><circle r="5" cx="44.94" cy="639.23" fill="#8b9ad9"></circle><circle r="5" cx="230.71" cy="538" fill="#8b9ad9"></circle><circle r="5" cx="241.68" cy="706.37" fill="#8b9ad9"></circle><circle r="5" cx="348.77" cy="512.19" fill="#8b9ad9"></circle><circle r="5" cx="533.54" cy="498.74" fill="#8b9ad9"></circle><circle r="5" cx="518.95" cy="641.39" fill="#8b9ad9"></circle><circle r="5" cx="695.7" cy="509.42" fill="#8b9ad9"></circle><circle r="5" cx="855.27" cy="337.96" fill="#8b9ad9"></circle><circle r="5" cx="810.64" cy="561.53" fill="#8b9ad9"></circle><circle r="5" cx="818.52" cy="688.04" fill="#8b9ad9"></circle><circle r="5" cx="996.88" cy="261.58" fill="#8b9ad9"></circle><circle r="5" cx="983.45" cy="386.48" fill="#8b9ad9"></circle><circle r="5" cx="976.86" cy="518.02" fill="#8b9ad9"></circle><circle r="5" cx="957.69" cy="657.13" fill="#8b9ad9"></circle><circle r="5" cx="1158.65" cy="-47.35" fill="#8b9ad9"></circle><circle r="5" cx="1093.78" cy="229.34" fill="#8b9ad9"></circle><circle r="5" cx="1129.19" cy="392.49" fill="#8b9ad9"></circle><circle r="5" cx="1148.05" cy="538.68" fill="#8b9ad9"></circle><circle r="5" cx="1129.09" cy="638.74" fill="#8b9ad9"></circle><circle r="5" cx="1311.03" cy="-98.37" fill="#8b9ad9"></circle><circle r="5" cx="1274.19" cy="98.05" fill="#8b9ad9"></circle><circle r="5" cx="1299.83" cy="249.26" fill="#8b9ad9"></circle><circle r="5" cx="1255.88" cy="339.45" fill="#8b9ad9"></circle><circle r="5" cx="1281.36" cy="499.09" fill="#8b9ad9"></circle><circle r="5" cx="1297.85" cy="668.19" fill="#8b9ad9"></circle><circle r="5" cx="1441.29" cy="-71.39" fill="#8b9ad9"></circle><circle r="5" cx="1456.73" cy="229.6" fill="#8b9ad9"></circle><circle r="5" cx="1443.3" cy="404.83" fill="#8b9ad9"></circle><circle r="5" cx="1451.87" cy="549.67" fill="#8b9ad9"></circle><circle r="5" cx="1604.94" cy="-103.03" fill="#8b9ad9"></circle><circle r="5" cx="1594.05" cy="357.03" fill="#8b9ad9"></circle><circle r="5" cx="1540.49" cy="511.61" fill="#8b9ad9"></circle><circle r="5" cx="1606.85" cy="703.07" fill="#8b9ad9"></circle></g><defs><mask id="SvgjsMask1141"><rect width="1440" height="600" fill="#ffffff"></rect></mask><radialGradient id="SvgjsRadialGradient1142"><stop stop-color="#ffffff" offset="0.1"></stop><stop stop-color="#1735b3" offset="0.2"></stop><stop stop-color="rgba(23, 53, 179, 0)" offset="1"></stop></radialGradient></defs></svg>